<svg xmlns="http://www.w3.org/2000/svg" width="20" height="20" viewBox="0 0 20 20"><g><g><path fill="#7a69e6" d="M8.583 12.115l7.68-9.175a.73.73 0 0 1 1.002-.086.725.725 0 0 1 .086.998l-8.164 9.76a.787.787 0 0 1-.517.258h-.035a.693.693 0 0 1-.5-.206l-3.262-3.253a.706.706 0 0 1 0-.999.71.71 0 0 1 1 0zm6.939-9.622a.702.702 0 0 1-.967.223C11.138.6 6.771 1.098 3.906 3.938c-3.348 3.34-3.348 8.796 0 12.136s8.82 3.34 12.168 0c2.865-2.857 3.366-7.23 1.208-10.638a.702.702 0 0 1 1.19-.74c2.504 3.959 1.934 9.054-1.397 12.376A10.014 10.014 0 0 1 10 20c-2.555 0-5.126-.981-7.077-2.927-3.9-3.89-3.9-10.242 0-14.132a9.975 9.975 0 0 1 12.375-1.412.698.698 0 0 1 .225.965z"/></g></g></svg>